<svg width="129" height="72" viewBox="0 0 129 72" fill="none" xmlns="http://www.w3.org/2000/svg">
<path d="M6.901 36.76V38.132H2.617L2.379 40.568C3.01367 40.2787 3.639 40.134 4.255 40.134C6.23367 40.134 7.223 41.058 7.223 42.906C7.223 43.9513 6.94767 44.754 6.397 45.314C5.85567 45.874 5.08567 46.154 4.087 46.154C3.667 46.154 3.191 46.112 2.659 46.028C2.127 45.9533 1.70233 45.8787 1.385 45.804L0.909 45.678L1.077 44.502C2.17833 44.6887 3.121 44.782 3.905 44.782C4.44633 44.782 4.86633 44.6327 5.165 44.334C5.46367 44.0353 5.613 43.6107 5.613 43.06C5.613 42.5093 5.48233 42.1127 5.221 41.87C4.95967 41.6273 4.619 41.506 4.199 41.506C3.443 41.506 2.827 41.5993 2.351 41.786L2.099 41.884L1.119 41.674L1.371 36.76H6.901ZM8.81298 46V43.984H10.451V46H8.81298ZM18.0846 36.76V38.132H13.8006L13.5626 40.568C14.1973 40.2787 14.8226 40.134 15.4386 40.134C17.4173 40.134 18.4066 41.058 18.4066 42.906C18.4066 43.9513 18.1313 44.754 17.5806 45.314C17.0393 45.874 16.2693 46.154 15.2706 46.154C14.8506 46.154 14.3746 46.112 13.8426 46.028C13.3106 45.9533 12.8859 45.8787 12.5686 45.804L12.0926 45.678L12.2606 44.502C13.3619 44.6887 14.3046 44.782 15.0886 44.782C15.6299 44.782 16.0499 44.6327 16.3486 44.334C16.6473 44.0353 16.7966 43.6107 16.7966 43.06C16.7966 42.5093 16.6659 42.1127 16.4046 41.87C16.1433 41.6273 15.8026 41.506 15.3826 41.506C14.6266 41.506 14.0106 41.5993 13.5346 41.786L13.2826 41.884L12.3026 41.674L12.5546 36.76H18.0846ZM21.9006 40.302V46H20.3886V40.302H19.5766V39H20.3886V38.552C20.3886 37.5533 20.5332 36.8673 20.8226 36.494C21.1119 36.1207 21.6252 35.934 22.3626 35.934L23.8746 36.074L23.8606 37.32C23.4032 37.3013 23.0206 37.292 22.7126 37.292C22.4139 37.292 22.2039 37.3853 22.0826 37.572C21.9612 37.7493 21.9006 38.0807 21.9006 38.566V39H23.7486V40.302H21.9006ZM28.6724 40.302H26.7404V43.382C26.7404 43.9513 26.7824 44.3293 26.8664 44.516C26.9504 44.7027 27.1651 44.796 27.5104 44.796L28.6584 44.754L28.7284 45.972C28.1031 46.0933 27.6271 46.154 27.3004 46.154C26.5071 46.154 25.9611 45.972 25.6624 45.608C25.3731 45.244 25.2284 44.558 25.2284 43.55V40.302H24.3324V39H25.2284V36.97H26.7404V39H28.6724V40.302Z" fill="#828282"/>
<line x1="32.2802" y1="24.7197" x2="36.7994" y2="24.7197" stroke="#828282" stroke-width="0.560702" stroke-linecap="round"/>
<line x1="32.2802" y1="57.0342" x2="36.7994" y2="57.0342" stroke="#828282" stroke-width="0.560702" stroke-linecap="round"/>
<line x1="34.2802" y1="25.2804" x2="34.2802" y2="56.7197" stroke="#828282" stroke-width="0.560702" stroke-linecap="square"/>
<line x1="95.4697" y1="13.1583" x2="95.4697" y2="18.0911" stroke="#828282" stroke-width="0.560702" stroke-linecap="round"/>
<line x1="41.2868" y1="13.1593" x2="41.2868" y2="18.092" stroke="#828282" stroke-width="0.560702" stroke-linecap="round"/>
<line x1="94.909" y1="15.5128" x2="41.2803" y2="15.5128" stroke="#828282" stroke-width="0.560702" stroke-linecap="square"/>
<path d="M60.67 1.76V11H59.116V3.524L56.946 4.924L56.232 3.762L59.242 1.76H60.67ZM67.552 11V9.348H63.394V8.158L65.83 1.76H67.552L64.976 7.99H67.552V5.274H69.12V7.99H70.128V9.348H69.12V11H67.552ZM73.426 5.302V11H71.914V5.302H71.102V4H71.914V3.552C71.914 2.55333 72.0586 1.86733 72.348 1.494C72.6373 1.12067 73.1506 0.933999 73.888 0.933999L75.4 1.074L75.386 2.32C74.9286 2.30133 74.546 2.292 74.238 2.292C73.9393 2.292 73.7293 2.38533 73.608 2.572C73.4866 2.74933 73.426 3.08067 73.426 3.566V4H75.274V5.302H73.426ZM80.1978 5.302H78.2658V8.382C78.2658 8.95133 78.3078 9.32933 78.3918 9.516C78.4758 9.70267 78.6905 9.796 79.0358 9.796L80.1838 9.754L80.2538 10.972C79.6285 11.0933 79.1525 11.154 78.8258 11.154C78.0325 11.154 77.4865 10.972 77.1878 10.608C76.8985 10.244 76.7538 9.558 76.7538 8.55V5.302H75.8578V4H76.7538V1.97H78.2658V4H80.1978V5.302Z" fill="#828282"/>
<path d="M94.7233 65.0223H98.3755V32.2848H94.7233V65.0223Z" fill="#1F1F31"/>
<path d="M94.637 20H42.363C41.6103 20 41 20.5591 41 21.2489V57.7511C41 58.4409 41.6103 59 42.363 59H94.637C95.3897 59 96 58.4409 96 57.7511V21.2489C96 20.5591 95.3897 20 94.637 20Z" fill="white" stroke="#1F1F31" stroke-width="0.645702" stroke-miterlimit="10"/>
<path d="M44.983 23.3229H92.017C92.3816 23.3229 92.6772 23.6184 92.6772 23.983V52.017C92.6772 52.3816 92.3816 52.6771 92.017 52.6771H44.983C44.6184 52.6771 44.3229 52.3816 44.3229 52.017V23.983C44.3229 23.6184 44.6184 23.3229 44.983 23.3229Z" stroke="#1F1F31" stroke-width="0.645702"/>
<path d="M106.785 32.2851H98.0526C97.5951 32.2851 97.2222 32.6663 97.2222 33.1384V63.63C97.2222 64.1002 97.5932 64.4833 98.0526 64.4833H124.073C124.531 64.4833 124.904 64.1021 124.904 63.63L124.616 52.5944C124.552 50.1846 123.77 47.8539 122.372 45.9162L115.968 37.0375C113.813 34.0489 110.407 32.287 106.787 32.287L106.785 32.2851Z" fill="white" stroke="#1F1F31" stroke-width="0.645702" stroke-miterlimit="10"/>
<path d="M113.367 63.9874C113.367 64.3567 113.34 64.7202 113.29 65.0737H99.0276C98.9776 64.7202 98.9507 64.3567 98.9507 63.9874C98.9507 62.2294 99.5466 60.6156 100.542 59.3456C101.863 57.6587 103.889 56.5802 106.159 56.5802C108.429 56.5802 110.455 57.6587 111.776 59.3456C112.771 60.6156 113.367 62.2294 113.367 63.9874Z" fill="#1F1F31"/>
<path d="M45.3 60H39.7C39.3134 60 39 60.4713 39 61.0526V62.9474C39 63.5287 39.3134 64 39.7 64H45.3C45.6866 64 46 63.5287 46 62.9474V61.0526C46 60.4713 45.6866 60 45.3 60Z" fill="#1F1F31" stroke="#1F1F31" stroke-width="0.393184" stroke-miterlimit="10"/>
<path d="M104.526 47.4941H102.219C101.9 47.4941 101.642 47.7594 101.642 48.0866V48.2842C101.642 48.6114 101.9 48.8767 102.219 48.8767H104.526C104.844 48.8767 105.102 48.6114 105.102 48.2842V48.0866C105.102 47.7594 104.844 47.4941 104.526 47.4941Z" fill="#1F1F31"/>
<path d="M120 59V65H43.2316C41.9998 65 41 64.0731 41 62.931V59H120Z" fill="#1F1F31"/>
<path d="M114.62 62.5054C114.62 63.4041 114.473 64.2692 114.204 65.0732H99.6571C99.388 64.2692 99.2419 63.4041 99.2419 62.5054C99.2419 61.3815 99.4707 60.3129 99.8839 59.345C101.07 56.554 103.778 54.6044 106.931 54.6044C110.083 54.6044 112.792 56.554 113.978 59.345C114.391 60.3129 114.62 61.3815 114.62 62.5054Z" fill="#1F1F31"/>
<path d="M106.998 70.9988C110.183 70.9988 112.764 68.3458 112.764 65.0731C112.764 61.8004 110.183 59.1474 106.998 59.1474C103.813 59.1474 101.231 61.8004 101.231 65.0731C101.231 68.3458 103.813 70.9988 106.998 70.9988Z" fill="#1F1F31"/>
<path d="M106.977 67.9739C108.51 67.9739 109.752 66.697 109.752 65.1217C109.752 63.5465 108.51 62.2695 106.977 62.2695C105.444 62.2695 104.201 63.5465 104.201 65.1217C104.201 66.697 105.444 67.9739 106.977 67.9739Z" fill="#707582"/>
<path d="M106.974 66.4396C107.682 66.4396 108.256 65.8497 108.256 65.1221C108.256 64.3945 107.682 63.8046 106.974 63.8046C106.266 63.8046 105.692 64.3945 105.692 65.1221C105.692 65.8497 106.266 66.4396 106.974 66.4396Z" fill="#1F1F31"/>
<path d="M105.289 64.3799C105.502 64.3799 105.674 64.203 105.674 63.9848C105.674 63.7667 105.502 63.5898 105.289 63.5898C105.077 63.5898 104.905 63.7667 104.905 63.9848C104.905 64.203 105.077 64.3799 105.289 64.3799Z" fill="#1F1F31"/>
<path d="M108.558 64.3799C108.77 64.3799 108.942 64.203 108.942 63.9848C108.942 63.7667 108.77 63.5898 108.558 63.5898C108.346 63.5898 108.174 63.7667 108.174 63.9848C108.174 64.203 108.346 64.3799 108.558 64.3799Z" fill="#1F1F31"/>
<path d="M105.289 66.75C105.502 66.75 105.674 66.5731 105.674 66.3549C105.674 66.1368 105.502 65.9599 105.289 65.9599C105.077 65.9599 104.905 66.1368 104.905 66.3549C104.905 66.5731 105.077 66.75 105.289 66.75Z" fill="#1F1F31"/>
<path d="M108.558 66.75C108.77 66.75 108.942 66.5731 108.942 66.3549C108.942 66.1368 108.77 65.9599 108.558 65.9599C108.346 65.9599 108.174 66.1368 108.174 66.3549C108.174 66.5731 108.346 66.75 108.558 66.75Z" fill="#1F1F31"/>
<path d="M70.4351 62.9006H59.0345C57.7889 62.9006 56.9931 61.5337 57.5851 60.4058L59.4362 56.8761C59.7226 56.329 60.2801 55.9872 60.8856 55.9872H68.584C69.1895 55.9872 69.7469 56.329 70.0333 56.8761L71.8844 60.4058C72.4765 61.5337 71.6807 62.9006 70.4351 62.9006Z" fill="#1F1F31"/>
<path d="M119.136 59.3456H126.249V61.5717C126.249 63.5055 124.72 65.0738 122.841 65.0738H119.136V59.3456Z" fill="#1F1F31"/>
<path d="M64.7349 70.999C67.9197 70.999 70.5015 68.346 70.5015 65.0733C70.5015 61.8006 67.9197 59.1476 64.7349 59.1476C61.5501 59.1476 58.9683 61.8006 58.9683 65.0733C58.9683 68.346 61.5501 70.999 64.7349 70.999Z" fill="#1F1F31"/>
<path d="M64.7137 67.9752C66.2466 67.9752 67.4893 66.6982 67.4893 65.1229C67.4893 63.5477 66.2466 62.2707 64.7137 62.2707C63.1807 62.2707 61.938 63.5477 61.938 65.1229C61.938 66.6982 63.1807 67.9752 64.7137 67.9752Z" fill="#707582"/>
<path d="M64.7131 66.4389C65.4212 66.4389 65.9952 65.8491 65.9952 65.1214C65.9952 64.3938 65.4212 63.804 64.7131 63.804C64.005 63.804 63.431 64.3938 63.431 65.1214C63.431 65.8491 64.005 66.4389 64.7131 66.4389Z" fill="#1F1F31"/>
<path d="M63.0508 64.3821C63.2631 64.3821 63.4352 64.2053 63.4352 63.9871C63.4352 63.7689 63.2631 63.592 63.0508 63.592C62.8385 63.592 62.6663 63.7689 62.6663 63.9871C62.6663 64.2053 62.8385 64.3821 63.0508 64.3821Z" fill="#1F1F31"/>
<path d="M66.3192 64.3821C66.5315 64.3821 66.7037 64.2053 66.7037 63.9871C66.7037 63.7689 66.5315 63.592 66.3192 63.592C66.1069 63.592 65.9348 63.7689 65.9348 63.9871C65.9348 64.2053 66.1069 64.3821 66.3192 64.3821Z" fill="#1F1F31"/>
<path d="M63.0505 66.7532C63.2629 66.7532 63.435 66.5763 63.435 66.3582C63.435 66.14 63.2629 65.9631 63.0505 65.9631C62.8382 65.9631 62.6661 66.14 62.6661 66.3582C62.6661 66.5763 62.8382 66.7532 63.0505 66.7532Z" fill="#1F1F31"/>
<path d="M66.3191 66.7532C66.5314 66.7532 66.7035 66.5763 66.7035 66.3582C66.7035 66.14 66.5314 65.9631 66.3191 65.9631C66.1068 65.9631 65.9346 66.14 65.9346 66.3582C65.9346 66.5763 66.1068 66.7532 66.3191 66.7532Z" fill="#1F1F31"/>
<path d="M118.43 46.597V47.395C118.43 47.5135 118.409 47.6281 118.371 47.7348C118.238 48.112 117.884 48.3826 117.469 48.3826H113.63C113.309 48.3826 113.01 48.2187 112.833 47.9441L112.392 47.2706C112.31 47.1442 112.225 47.0217 112.137 46.9012C111.691 46.279 111.17 45.7161 110.589 45.2242L109.969 44.6969C109.796 44.5507 109.58 44.4717 109.357 44.4717H102.026C101.496 44.4717 101.065 44.0292 101.065 43.4841V36.8275C101.065 36.2824 101.496 35.8399 102.026 35.8399H110.103C110.366 35.8399 110.618 35.9505 110.799 36.1461L113.01 38.5341C114.27 39.8951 115.397 41.3804 116.373 42.9685L116.921 43.8574L118.282 46.0677C118.328 46.1427 118.365 46.2257 118.388 46.3106C118.417 46.4035 118.43 46.5002 118.43 46.597Z" fill="#9499A3" stroke="#1F1F31" stroke-width="0.645702" stroke-miterlimit="10"/>
<path d="M38 71L128 71" stroke="#1F1F31" stroke-width="0.645089" stroke-linecap="round" stroke-linejoin="round"/>
<path d="M111.294 45.8466L113.708 43.0148C113.952 42.728 114.378 42.6991 114.657 42.9503C114.936 43.2015 114.964 43.6392 114.72 43.9259L112.306 46.7577L111.294 45.8466Z" fill="#1F1F31"/>
<path d="M118.348 46.9023H117.425C117.202 46.9023 117.021 47.088 117.021 47.3171V49.4503C117.021 49.6794 117.202 49.8651 117.425 49.8651H118.348C118.57 49.8651 118.751 49.6794 118.751 49.4503V47.3171C118.751 47.088 118.57 46.9023 118.348 46.9023Z" fill="#1F1F31"/>
<path d="M118.388 46.3106L118.371 47.7347C118.238 48.112 117.885 48.3826 117.47 48.3826H113.631C113.31 48.3826 113.01 48.2187 112.833 47.9441L112.393 47.2706C112.31 47.1441 112.226 47.0217 112.137 46.9012L116.922 43.8574L118.283 46.0676C118.329 46.1427 118.365 46.2257 118.388 46.3106Z" fill="#1F1F31"/>
<path d="M116.387 45.124H116.987C117.959 45.124 118.751 45.9358 118.751 46.9372V47.8794C118.751 48.2113 118.488 48.4819 118.165 48.4819H115.416C115.093 48.4819 114.83 48.2113 114.83 47.8794V46.7259C114.83 45.8429 115.528 45.1259 116.387 45.1259V45.124Z" fill="#1F1F31"/>
<path d="M102.558 39.1972C103.538 39.1972 104.334 40.015 104.334 41.0223V43.9239C104.334 44.2597 104.068 44.5303 103.744 44.5303H101.581C101.254 44.5303 100.991 44.2578 100.991 43.9239V40.809C100.991 39.9201 101.694 39.1972 102.559 39.1972H102.558Z" fill="#1F1F31"/>
<path d="M91.3224 61.3203H85.6326C85.2398 61.3203 84.9214 61.8556 84.9214 62.5159V64.6678C84.9214 65.3281 85.2398 65.8634 85.6326 65.8634H91.3224C91.7152 65.8634 92.0336 65.3281 92.0336 64.6678V62.5159C92.0336 61.8556 91.7152 61.3203 91.3224 61.3203Z" fill="white" stroke="#1F1F31" stroke-width="0.645702" stroke-miterlimit="10"/>
<path d="M124.811 53.9316C125.889 54.0757 126.72 54.9988 126.72 56.116V56.6489C126.72 57.7661 125.889 58.6892 124.811 58.8333V53.9316Z" fill="#1F1F31" stroke="#1F1F31" stroke-width="0.589776"/>
</svg>
