<svg width="111" height="70" viewBox="0 0 111 70" fill="none" xmlns="http://www.w3.org/2000/svg">
<line x1="72.2804" y1="41.1583" x2="72.2803" y2="46.091" stroke="#828282" stroke-width="0.560702" stroke-linecap="round"/>
<line x1="27.2851" y1="41.1593" x2="27.2851" y2="46.092" stroke="#828282" stroke-width="0.560702" stroke-linecap="round"/>
<line x1="71.7196" y1="43.5128" x2="27.2802" y2="43.5128" stroke="#828282" stroke-width="0.560702" stroke-linecap="square"/>
<path d="M41.022 31.16V29.76H46.846V31.608L43.444 39.154L41.988 38.734L45.278 31.58V31.16H41.022ZM50.592 33.302V39H49.08V33.302H48.268V32H49.08V31.552C49.08 30.5533 49.2247 29.8673 49.514 29.494C49.8033 29.1207 50.3167 28.934 51.054 28.934L52.566 29.074L52.552 30.32C52.0947 30.3013 51.712 30.292 51.404 30.292C51.1053 30.292 50.8953 30.3853 50.774 30.572C50.6527 30.7493 50.592 31.0807 50.592 31.566V32H52.44V33.302H50.592ZM57.3638 33.302H55.4318V36.382C55.4318 36.9513 55.4738 37.3293 55.5578 37.516C55.6418 37.7027 55.8565 37.796 56.2018 37.796L57.3498 37.754L57.4198 38.972C56.7945 39.0933 56.3185 39.154 55.9918 39.154C55.1985 39.154 54.6525 38.972 54.3538 38.608C54.0645 38.244 53.9198 37.558 53.9198 36.55V33.302H53.0238V32H53.9198V29.97H55.4318V32H57.3638V33.302Z" fill="#828282"/>
<path d="M72.4257 62.8223H76.2969V50.3936H72.4257V62.8223Z" fill="#1F1F31"/>
<path d="M72.8941 50.3926H28.3547C27.7133 50.3926 27.1934 50.4861 27.1934 50.6014V56.7037C27.1934 56.8191 27.7133 56.9125 28.3547 56.9125H72.8941C73.5355 56.9125 74.0555 56.8191 74.0555 56.7037V50.6014C74.0555 50.4861 73.5355 50.3926 72.8941 50.3926Z" fill="white" stroke="#1F1F31" stroke-width="0.660627" stroke-miterlimit="10"/>
<path d="M85.2087 29H75.9525C75.4675 29 75.0723 29.3932 75.0723 29.8802V61.3328C75.0723 61.8178 75.4655 62.213 75.9525 62.213H103.534C104.019 62.213 104.414 61.8198 104.414 61.3328L104.108 49.9494C104.041 47.4637 103.212 45.0595 101.731 43.0607L94.9418 33.9022C92.6578 30.8195 89.0474 29.002 85.2108 29.002L85.2087 29Z" fill="white" stroke="#1F1F31" stroke-width="0.660627" stroke-miterlimit="10"/>
<path d="M92.1893 61.7021C92.1893 62.0831 92.1608 62.458 92.1078 62.8227H76.9897C76.9367 62.458 76.9082 62.0831 76.9082 61.7021C76.9082 59.8887 77.5398 58.2241 78.5952 56.914C79.995 55.174 82.1425 54.0615 84.5488 54.0615C86.955 54.0615 89.1025 55.174 90.5023 56.914C91.5577 58.2241 92.1893 59.8887 92.1893 61.7021Z" fill="#1F1F31"/>
<path d="M31.6138 57.1172H26.2349C25.8635 57.1172 25.5625 57.6693 25.5625 58.3504V60.5702C25.5625 61.2513 25.8635 61.8034 26.2349 61.8034H31.6138C31.9852 61.8034 32.2862 61.2513 32.2862 60.5702V58.3504C32.2862 57.6693 31.9852 57.1172 31.6138 57.1172Z" fill="#1F1F31" stroke="#1F1F31" stroke-width="0.460903" stroke-miterlimit="10"/>
<path d="M82.8179 44.6886H80.3729C80.0353 44.6886 79.7617 44.9623 79.7617 45.2998V45.5036C79.7617 45.8412 80.0353 46.1148 80.3729 46.1148H82.8179C83.1555 46.1148 83.4291 45.8412 83.4291 45.5036V45.2998C83.4291 44.9623 83.1555 44.6886 82.8179 44.6886Z" fill="#1F1F31"/>
<path d="M99.3203 56.9141V62.8228H29.2308C28.1062 62.8228 27.1934 61.91 27.1934 60.7853V56.9141H99.3203Z" fill="#1F1F31"/>
<path d="M93.5147 60.1734C93.5147 61.1004 93.3599 61.9928 93.0746 62.8221H77.6549C77.3697 61.9928 77.2148 61.1004 77.2148 60.1734C77.2148 59.014 77.4573 57.9118 77.8954 56.9134C79.1525 54.0344 82.0233 52.0234 85.3648 52.0234C88.7063 52.0234 91.5771 54.0344 92.8342 56.9134C93.2723 57.9118 93.5147 59.014 93.5147 60.1734Z" fill="#1F1F31"/>
<path d="M85.464 68.9339C88.8398 68.9339 91.5765 66.1973 91.5765 62.8214C91.5765 59.4456 88.8398 56.709 85.464 56.709C82.0882 56.709 79.3516 59.4456 79.3516 62.8214C79.3516 66.1973 82.0882 68.9339 85.464 68.9339Z" fill="#1F1F31"/>
<path d="M85.4382 65.8139C87.0631 65.8139 88.3803 64.4967 88.3803 62.8718C88.3803 61.2469 87.0631 59.9297 85.4382 59.9297C83.8133 59.9297 82.4961 61.2469 82.4961 62.8718C82.4961 64.4967 83.8133 65.8139 85.4382 65.8139Z" fill="#9499A3"/>
<path d="M85.4391 64.2317C86.1896 64.2317 86.7981 63.6232 86.7981 62.8727C86.7981 62.1221 86.1896 61.5137 85.4391 61.5137C84.6885 61.5137 84.0801 62.1221 84.0801 62.8727C84.0801 63.6232 84.6885 64.2317 85.4391 64.2317Z" fill="#1F1F31"/>
<path d="M83.6809 62.1089C83.906 62.1089 84.0884 61.9265 84.0884 61.7014C84.0884 61.4764 83.906 61.2939 83.6809 61.2939C83.4559 61.2939 83.2734 61.4764 83.2734 61.7014C83.2734 61.9265 83.4559 62.1089 83.6809 62.1089Z" fill="#1F1F31"/>
<path d="M87.1458 62.1089C87.3708 62.1089 87.5533 61.9265 87.5533 61.7014C87.5533 61.4764 87.3708 61.2939 87.1458 61.2939C86.9207 61.2939 86.7383 61.4764 86.7383 61.7014C86.7383 61.9265 86.9207 62.1089 87.1458 62.1089Z" fill="#1F1F31"/>
<path d="M83.6809 64.5543C83.906 64.5543 84.0884 64.3718 84.0884 64.1468C84.0884 63.9217 83.906 63.7393 83.6809 63.7393C83.4559 63.7393 83.2734 63.9217 83.2734 64.1468C83.2734 64.3718 83.4559 64.5543 83.6809 64.5543Z" fill="#1F1F31"/>
<path d="M87.1458 64.5543C87.3708 64.5543 87.5533 64.3718 87.5533 64.1468C87.5533 63.9217 87.3708 63.7393 87.1458 63.7393C86.9207 63.7393 86.7383 63.9217 86.7383 64.1468C86.7383 64.3718 86.9207 64.5543 87.1458 64.5543Z" fill="#1F1F31"/>
<path d="M46.6818 60.5804H34.5975C33.2772 60.5804 32.4337 59.1705 33.0613 58.0071L35.0234 54.3661C35.3269 53.8017 35.9178 53.4492 36.5596 53.4492H44.7197C45.3616 53.4492 45.9524 53.8017 46.256 54.3661L48.2181 58.0071C48.8456 59.1705 48.0021 60.5804 46.6818 60.5804Z" fill="#1F1F31"/>
<path d="M98.3027 56.9141H105.841V59.2103C105.841 61.205 104.222 62.8228 102.229 62.8228H98.3027V56.9141Z" fill="#1F1F31"/>
<path d="M40.6398 68.9339C44.0156 68.9339 46.7522 66.1973 46.7522 62.8214C46.7522 59.4456 44.0156 56.709 40.6398 56.709C37.264 56.709 34.5273 59.4456 34.5273 62.8214C34.5273 66.1973 37.264 68.9339 40.6398 68.9339Z" fill="#1F1F31"/>
<path d="M40.614 65.8139C42.2389 65.8139 43.5561 64.4967 43.5561 62.8718C43.5561 61.2469 42.2389 59.9297 40.614 59.9297C38.9891 59.9297 37.6719 61.2469 37.6719 62.8718C37.6719 64.4967 38.9891 65.8139 40.614 65.8139Z" fill="#9499A3"/>
<path d="M40.6149 64.2317C41.3654 64.2317 41.9739 63.6232 41.9739 62.8727C41.9739 62.1221 41.3654 61.5137 40.6149 61.5137C39.8643 61.5137 39.2559 62.1221 39.2559 62.8727C39.2559 63.6232 39.8643 64.2317 40.6149 64.2317Z" fill="#1F1F31"/>
<path d="M38.8567 62.1089C39.0818 62.1089 39.2642 61.9265 39.2642 61.7014C39.2642 61.4764 39.0818 61.2939 38.8567 61.2939C38.6317 61.2939 38.4492 61.4764 38.4492 61.7014C38.4492 61.9265 38.6317 62.1089 38.8567 62.1089Z" fill="#1F1F31"/>
<path d="M42.3216 62.1089C42.5466 62.1089 42.7291 61.9265 42.7291 61.7014C42.7291 61.4764 42.5466 61.2939 42.3216 61.2939C42.0965 61.2939 41.9141 61.4764 41.9141 61.7014C41.9141 61.9265 42.0965 62.1089 42.3216 62.1089Z" fill="#1F1F31"/>
<path d="M38.8567 64.5543C39.0818 64.5543 39.2642 64.3718 39.2642 64.1468C39.2642 63.9217 39.0818 63.7393 38.8567 63.7393C38.6317 63.7393 38.4492 63.9217 38.4492 64.1468C38.4492 64.3718 38.6317 64.5543 38.8567 64.5543Z" fill="#1F1F31"/>
<path d="M42.3216 64.5543C42.5466 64.5543 42.7291 64.3718 42.7291 64.1468C42.7291 63.9217 42.5466 63.7393 42.3216 63.7393C42.0965 63.7393 41.9141 63.9217 41.9141 64.1468C41.9141 64.3718 42.0965 64.5543 42.3216 64.5543Z" fill="#1F1F31"/>
<path d="M97.5551 43.7641V44.5873C97.5551 44.7095 97.5327 44.8277 97.4919 44.9377C97.3513 45.3269 96.9764 45.606 96.5363 45.606H92.4675C92.1272 45.606 91.8094 45.4369 91.6219 45.1537L91.1553 44.4589C91.0677 44.3285 90.9781 44.2022 90.8843 44.0779C90.4117 43.4361 89.8595 42.8554 89.2442 42.3481L88.5861 41.804C88.4027 41.6533 88.1745 41.5718 87.9381 41.5718H80.1672C79.6048 41.5718 79.1484 41.1154 79.1484 40.553V33.6867C79.1484 33.1244 79.6048 32.668 80.1672 32.668H88.7287C89.0078 32.668 89.2747 32.7821 89.4663 32.9838L91.8094 35.4471C93.146 36.8509 94.3399 38.3831 95.375 40.0212L95.9556 40.9381L97.3982 43.2181C97.4471 43.2955 97.4858 43.3811 97.5102 43.4687C97.5408 43.5644 97.5551 43.6643 97.5551 43.7641Z" fill="#9499A3" stroke="#1F1F31" stroke-width="0.660627" stroke-miterlimit="10"/>
<path d="M89.9902 42.9902L92.5492 40.0692C92.8084 39.7734 93.2598 39.7436 93.5555 40.0027C93.8513 40.2618 93.8812 40.7132 93.622 41.009L91.063 43.9301L89.9902 42.9902Z" fill="#1F1F31"/>
<path d="M97.4664 44.0773H96.4885C96.2521 44.0773 96.0606 44.2688 96.0606 44.5051V46.7056C96.0606 46.9419 96.2521 47.1335 96.4885 47.1335H97.4664C97.7027 47.1335 97.8943 46.9419 97.8943 46.7056V44.5051C97.8943 44.2688 97.7027 44.0773 97.4664 44.0773Z" fill="#1F1F31"/>
<path d="M97.5107 43.4681L97.4923 44.9371C97.3517 45.3262 96.9768 45.6054 96.5367 45.6054H92.4679C92.1276 45.6054 91.8098 45.4363 91.6223 45.1531L91.1557 44.4583C91.0681 44.3279 90.9785 44.2016 90.8848 44.0773L95.9561 40.9375L97.3986 43.2174C97.4475 43.2949 97.4862 43.3804 97.5107 43.4681Z" fill="#1F1F31"/>
<path d="M95.3867 42.2441H96.0224C97.0534 42.2441 97.8928 43.0815 97.8928 44.1145V45.0864C97.8928 45.4287 97.6137 45.7079 97.2714 45.7079H94.3578C94.0155 45.7079 93.7363 45.4287 93.7363 45.0864V43.8965C93.7363 42.9858 94.4759 42.2462 95.3867 42.2462V42.2441Z" fill="#1F1F31"/>
<path d="M80.7309 36.1309C81.77 36.1309 82.6135 36.9744 82.6135 38.0135V41.0066C82.6135 41.3529 82.3323 41.6321 81.988 41.6321H79.6958C79.3494 41.6321 79.0703 41.3509 79.0703 41.0066V37.7934C79.0703 36.8766 79.816 36.1309 80.7329 36.1309H80.7309Z" fill="#1F1F31"/>
<path d="M68.818 58.9512H62.7871C62.3707 58.9512 62.0332 59.5033 62.0332 60.1844V62.4042C62.0332 63.0853 62.3707 63.6374 62.7871 63.6374H68.818C69.2344 63.6374 69.5719 63.0853 69.5719 62.4042V60.1844C69.5719 59.5033 69.2344 58.9512 68.818 58.9512Z" fill="white" stroke="#1F1F31" stroke-width="0.660627" stroke-miterlimit="10"/>
<path d="M104.353 51.6683C105.461 51.8351 106.311 52.7912 106.311 53.9456V54.3531C106.311 55.5076 105.461 56.4636 104.353 56.6304V51.6683Z" fill="#1F1F31" stroke="#1F1F31" stroke-width="0.691354"/>
<path d="M22 69.2043L110.213 69.2043" stroke="#1F1F31" stroke-width="0.660627" stroke-linecap="round" stroke-linejoin="round"/>
<path d="M6.86 37.16C5.95467 37.0293 5.13333 36.964 4.396 36.964C3.65867 36.964 3.108 37.1927 2.744 37.65C2.38 38.1073 2.19333 38.7467 2.184 39.568L2.506 39.456C3.178 39.2413 3.74267 39.134 4.2 39.134C6.29067 39.134 7.336 40.114 7.336 42.074C7.336 43.082 7.04667 43.8473 6.468 44.37C5.88933 44.8927 5.04467 45.154 3.934 45.154C2.82333 45.154 1.98333 44.7433 1.414 43.922C0.854 43.0913 0.574 41.9107 0.574 40.38C0.574 37.1973 1.82467 35.606 4.326 35.606C5.026 35.606 5.782 35.69 6.594 35.858L7 35.942L6.86 37.16ZM2.436 40.814L2.17 40.912C2.18867 42.8347 2.80467 43.796 4.018 43.796C4.56867 43.796 4.98867 43.6467 5.278 43.348C5.57667 43.0493 5.726 42.634 5.726 42.102C5.726 41.57 5.58133 41.1733 5.292 40.912C5.00267 40.6413 4.59667 40.506 4.074 40.506C3.56067 40.506 3.01467 40.6087 2.436 40.814ZM10.592 39.302V45H9.07998V39.302H8.26798V38H9.07998V37.552C9.07998 36.5533 9.22465 35.8673 9.51398 35.494C9.80332 35.1207 10.3167 34.934 11.054 34.934L12.566 35.074L12.552 36.32C12.0947 36.3013 11.712 36.292 11.404 36.292C11.1053 36.292 10.8953 36.3853 10.774 36.572C10.6527 36.7493 10.592 37.0807 10.592 37.566V38H12.44V39.302H10.592ZM17.3638 39.302H15.4318V42.382C15.4318 42.9513 15.4738 43.3293 15.5578 43.516C15.6418 43.7027 15.8565 43.796 16.2018 43.796L17.3498 43.754L17.4198 44.972C16.7945 45.0933 16.3185 45.154 15.9918 45.154C15.1985 45.154 14.6525 44.972 14.3538 44.608C14.0645 44.244 13.9198 43.558 13.9198 42.55V39.302H13.0238V38H13.9198V35.97H15.4318V38H17.3638V39.302Z" fill="#828282"/>
<line x1="19.2804" y1="23.7196" x2="23.7996" y2="23.7196" stroke="#828282" stroke-width="0.560702" stroke-linecap="round"/>
<line x1="19.2804" y1="56.0341" x2="23.7996" y2="56.0341" stroke="#828282" stroke-width="0.560702" stroke-linecap="round"/>
<line x1="21.2804" y1="24.2804" x2="21.2803" y2="55.7197" stroke="#828282" stroke-width="0.560702" stroke-linecap="square"/>
</svg>
